# xmcd
#
# Track frame offsets:
#  150
#  13288
#  23452
#  35963
#  46601
#  58512
#  72680
#  83101
#  95898
#  111745
#  121094
#  130045
#
# Disc length: 1966 seconds
#
# Revision: 0
# Processed by: cddbd v1.5.1PL0 Copyright (c) Steve Scherf et al.
# Submitted via: Collectorz.com_Music_Collector 6.9
#
DISCID=a707ac0c
DTITLE=Ford, Tennessee Ernie - This Lusty Land
DYEAR=1900
DGENRE=Country
TTITLE0=John Henry
TTITLE1=Trouble In Mind
TTITLE2=Dark As A Dungeon
TTITLE3=False Hearted Girl
TTITLE4=Chicken Road
TTITLE5=Who Will Shoe Your Pretty Little Foot
TTITLE6=The Rovin' Gambler
TTITLE7=In The Pines 
TTITLE8=I Gave My Love A Cherry
TTITLE9=Nine Pound Hammer
TTITLE10=Gaily The Troubadour
TTITLE11=The Last Letter
EXTD=
EXTT0=
EXTT1=
EXTT2=
EXTT3=
EXTT4=
EXTT5=
EXTT6=
EXTT7=
EXTT8=
EXTT9=
EXTT10=
EXTT11=
PLAYORDER=
